<svg xmlns="http://www.w3.org/2000/svg" viewBox="0 0 22 21" width="22" height="21">
	<style>
		tspan { white-space:pre }
		.shp0 { fill: #ed542b } 
	</style>
	<path id="icon" class="shp0" d="M11.57 -0.01C8.27 0.22 5.47 2.11 3.88 4.81C4.27 5.03 4.65 5.34 5.02 5.75C6.2 3.63 8.23 2.07 10.67 1.59L11.79 3.26L12.68 1.46C16.5 1.66 19.72 4.55 20.44 8.41L18.82 9.56L20.58 10.47C20.45 13.09 19.16 15.43 17.19 16.91C17.34 17.21 17.44 17.52 17.47 17.84C17.5 18.08 17.49 18.3 17.46 18.52C20.41 16.62 22.27 13.15 22 9.34C21.63 3.81 16.95 -0.38 11.57 -0.01ZM15.19 16.31C12.81 14.61 12.25 15.57 11.3 16.69C10.64 17.47 8.73 16.06 7.07 14.57C5.4 13.08 3.79 11.33 4.45 10.55C5.4 9.43 6.24 8.73 4.28 6.54C2.31 4.36 1.23 6.21 0.31 7.3C-0.75 8.55 0.63 12.84 5.12 16.86C9.62 20.89 13.94 21.7 15 20.45C15.92 19.37 17.56 18.02 15.19 16.31ZM8.01 11.87C7.87 9.82 10.18 9.29 10.12 8.49C10.1 8.11 9.78 7.96 9.5 7.98C8.99 8.02 8.74 8.63 8.74 8.63L7.71 8.02C7.71 8.02 8.13 6.79 9.54 6.69C10.42 6.63 11.42 7.08 11.5 8.27C11.62 10 9.46 10.48 9.47 11.2L11.77 11.04L11.85 12.21L8.11 12.47C8.05 12.25 8.02 12.06 8.01 11.87ZM12.26 10L14.12 6.47L15.73 6.36L15.95 9.44L16.59 9.4L16.67 10.53L16.02 10.57L16.12 11.92L14.81 12.01L14.71 10.66L12.31 10.83L12.26 10L12.26 10ZM14.64 9.54L14.55 8.29C14.53 7.99 14.55 7.67 14.55 7.67L14.54 7.67C14.54 7.67 14.45 8.02 14.31 8.26L13.58 9.59L13.59 9.61L14.64 9.54L14.64 9.54Z" />
</svg>