<svg xmlns="http://www.w3.org/2000/svg" viewBox="0 0 15 21" width="15" height="21">
	<style>
		tspan { white-space:pre }
		.shp0 { fill: #ec552c } 
	</style>
	<path id="Forma 1" class="shp0" d="M7.5 3.18C5.06 3.18 3.08 5.24 3.08 7.76C3.08 10.28 5.06 12.34 7.5 12.34C9.94 12.34 11.92 10.28 11.92 7.76C11.92 5.24 9.94 3.18 7.5 3.18ZM7.5 11.1C5.72 11.1 4.27 9.6 4.27 7.76C4.27 5.91 5.72 4.41 7.5 4.41C9.28 4.41 10.73 5.91 10.73 7.76C10.73 9.6 9.28 11.1 7.5 11.1ZM7.5 0C3.36 0 0 3.48 0 7.76C0 10.23 2 13.9 3.19 15.88C3.98 17.17 4.82 18.41 5.57 19.35C6.76 20.87 7.19 21 7.5 21C7.81 21 8.22 20.87 9.41 19.35C10.16 18.4 11 17.17 11.79 15.88C12.99 13.9 15 10.22 15 7.76C15 3.48 11.64 0 7.5 0ZM10.96 14.92C9.42 17.5 8.01 19.25 7.49 19.69C6.97 19.26 5.58 17.56 4.02 14.93C2.22 11.89 1.19 9.28 1.19 7.76C1.19 4.16 4.02 1.23 7.5 1.23C10.98 1.23 13.81 4.16 13.81 7.76C13.81 9.27 12.77 11.88 10.96 14.92Z" />
</svg>