<svg xmlns="http://www.w3.org/2000/svg" viewBox="0 0 24 16" width="24" height="16">
	<style>
		tspan { white-space:pre }
		.shp0 { fill: #ed542b } 
	</style>
	<path id="Forma 1" class="shp0" d="M0.79 8.75L0.79 8C0.79 7.63 0.95 7.28 1.22 7.02L5.48 3C5.75 2.74 6.11 2.6 6.49 2.6L8.64 2.6L8.64 1.83C8.64 1.26 9.12 0.79 9.72 0.79L22.12 0.79C22.72 0.79 23.21 1.26 23.21 1.83L23.21 8.75L0.79 8.75ZM7.37 3.95C7.37 3.86 7.29 3.79 7.2 3.79L6.41 3.79C6.37 3.79 6.33 3.81 6.29 3.84L2.96 6.87C2.85 6.97 2.92 7.15 3.08 7.15L7.2 7.15C7.29 7.15 7.37 7.08 7.37 6.99L7.37 3.95ZM0.79 9.32L0.79 11.61C0.79 12.19 1.28 12.65 1.88 12.65L3.04 12.65C3.25 11.28 4.48 10.22 5.98 10.22C7.47 10.22 8.71 11.28 8.92 12.65L14.79 12.65C15 11.28 16.24 10.22 17.73 10.22C19.22 10.22 20.46 11.28 20.67 12.65L22.12 12.65C22.72 12.65 23.21 12.19 23.21 11.61L23.21 9.32L0.79 9.32ZM5.98 10.91C7.22 10.91 8.22 11.87 8.22 13.06C8.22 14.24 7.22 15.2 5.98 15.2C4.74 15.2 3.73 14.24 3.73 13.06C3.73 11.87 4.74 10.91 5.98 10.91ZM5.98 14.13C6.6 14.13 7.1 13.65 7.1 13.06C7.1 12.47 6.6 11.98 5.98 11.98C5.36 11.98 4.85 12.47 4.85 13.06C4.85 13.65 5.36 14.13 5.98 14.13ZM17.73 10.91C18.97 10.91 19.98 11.87 19.98 13.06C19.98 14.24 18.97 15.2 17.73 15.2C16.49 15.2 15.49 14.24 15.49 13.06C15.49 11.87 16.49 10.91 17.73 10.91ZM17.73 14.13C18.35 14.13 18.86 13.65 18.86 13.06C18.86 12.47 18.35 11.98 17.73 11.98C17.11 11.98 16.61 12.47 16.61 13.06C16.61 13.65 17.11 14.13 17.73 14.13Z" />
</svg>