<svg xmlns="http://www.w3.org/2000/svg" viewBox="0 0 17 20" width="17" height="20">
	<style>
		tspan { white-space:pre }
		.shp0 { fill: #ed542b } 
	</style>
	<path id="Forma 1" class="shp0" d="M5.51 14.72L4.76 13.46L3.16 13.75L5.26 9.92L1.17 9.92L1.17 20L8.14 20L8.14 9.92L5.51 14.72ZM16.98 5.1L12.35 5.1C12.62 4.96 12.87 4.81 13.08 4.65C13.9 4.04 14.34 3.27 14.34 2.51C14.34 1.88 14.05 0.98 13.63 0.61C13.21 0.23 12.66 0.01 12.06 0.01C11.43 0.01 10.84 0.23 10.34 0.58C9.58 1.1 8.98 2.24 8.56 3.1C8.54 3.15 8.52 3.19 8.5 3.23C8.34 2.9 8.16 2.23 7.96 1.92C7.6 1.4 7.17 0.93 6.66 0.58C6.16 0.23 5.57 0.01 4.94 0.01C4.3 0.01 3.73 0.28 3.29 0.7C2.86 1.12 2.56 2.06 2.56 2.73C2.56 3.12 2.67 3.53 2.9 3.9C3.18 4.36 3.64 4.77 4.27 5.1L0.01 5.1L0.02 9.11L8.02 9.11L8.02 5.1L8.99 5.1L8.99 9.11L16.99 9.11L16.98 5.1ZM4.54 3.85C4.22 3.64 4.02 3.43 3.91 3.24C3.8 3.05 3.76 2.72 3.76 2.56C3.75 2.29 3.88 1.82 4.12 1.6C4.34 1.37 4.65 1.24 4.93 1.24L4.94 1.24C5.29 1.24 5.64 1.36 6 1.6C6.53 1.96 7.02 2.94 7.37 3.66C7.55 4.02 7.69 4.4 7.78 4.78C6.18 4.6 5.14 4.24 4.54 3.85ZM10.02 2.98C10.31 2.55 10.65 1.85 11 1.6C11.35 1.36 11.71 1.24 12.06 1.24L12.07 1.24C12.36 1.24 12.65 1.36 12.84 1.53C13.04 1.71 13.14 2.04 13.14 2.28C13.14 2.55 13 3.18 12.38 3.65C11.79 4.09 10.77 4.54 9.2 4.86C9.34 4.22 9.63 3.54 10.02 2.98ZM13.85 13.74L12.25 13.46L11.5 14.74L8.91 9.98L8.91 20L15.84 20L15.84 9.92L11.75 9.92L13.85 13.74ZM8.91 9.92" />
</svg>