<svg xmlns="http://www.w3.org/2000/svg" viewBox="0 0 12 18" width="12" height="18">
	<style>
		tspan { white-space:pre }
		.shp0 { fill: #ed542b } 
	</style>
	<path id="Forma 1" class="shp0" d="M10.71 9.29C10.16 8.88 9.32 8.54 8.21 8.27L7.34 8.08L7.34 4.54C7.37 4.56 7.39 4.57 7.42 4.57C7.44 4.57 7.46 4.58 7.46 4.61C8.19 4.95 8.58 5.54 8.63 6.36L11.55 6.36C11.5 4.9 10.93 3.78 9.84 3C9.14 2.49 8.3 2.14 7.34 1.97L7.34 0L4.66 0L4.66 1.9C3.39 2.05 2.4 2.44 1.67 3.07C0.71 3.9 0.23 4.95 0.23 6.22C0.23 7.58 0.72 8.6 1.7 9.25C2.23 9.62 3.22 9.96 4.66 10.28L4.66 14.08C4.13 13.94 3.72 13.71 3.44 13.39C3.14 13.05 2.95 12.58 2.88 12L0 12C0 13.44 0.54 14.57 1.63 15.4C2.41 15.99 3.42 16.36 4.66 16.54L4.66 18L7.34 18L7.34 16.57C8.66 16.4 9.7 16 10.49 15.36C11.5 14.51 12 13.44 12 12.14C12 10.9 11.57 9.95 10.71 9.29L10.71 9.29ZM3.75 7.13C3.27 6.89 3.03 6.51 3.03 6C3.03 5.44 3.27 5.01 3.75 4.72C4 4.57 4.3 4.45 4.66 4.35L4.66 7.46C4.23 7.34 3.92 7.23 3.75 7.13ZM7.8 14.01C7.67 14.06 7.52 14.1 7.34 14.12L7.34 10.86C7.82 11.01 8.19 11.16 8.44 11.3C8.87 11.57 9.09 11.94 9.09 12.4C9.09 13.18 8.66 13.72 7.8 14.01Z" />
</svg>