<svg xmlns="http://www.w3.org/2000/svg" viewBox="0 0 15 21" width="15" height="21">
	<style>
		tspan { white-space:pre }
		.shp0 { fill: #ed542b } 
	</style>
	<path id="Forma 1" class="shp0" d="M3.54 9.46C3.59 9.59 3.7 9.86 3.76 9.93C3.83 9.97 3.88 10.04 3.9 10.12C4.47 12.19 5.96 13.64 7.53 13.63C9.1 13.63 10.57 12.17 11.11 10.1C11.13 10.02 11.18 9.95 11.25 9.91C11.31 9.83 11.42 9.56 11.47 9.43C11.5 9.34 11.54 9.25 11.57 9.18C11.7 8.9 11.66 8.62 11.53 8.55L11.52 8.55C11.44 8.52 11.38 8.45 11.35 8.38L10.52 8.62C10.51 8.63 10.49 8.63 10.48 8.63C10.42 8.63 10.37 8.59 10.34 8.53L10.06 7.8C9.76 7.89 9.37 7.94 8.9 7.94C7.39 7.95 5.47 7.49 4.96 7.36L4.51 8.46C4.48 8.52 4.41 8.56 4.35 8.55L3.64 8.44C3.6 8.5 3.55 8.55 3.48 8.57L3.47 8.58C3.35 8.65 3.31 8.93 3.44 9.21C3.47 9.28 3.5 9.37 3.54 9.46ZM2.97 14.46L3.47 13.93L7.18 13.93L4.81 9.4L3.06 9.78C2.61 9.88 2.24 10.24 2.12 10.72L0.05 17.9C-0.05 18.29 0.03 18.71 0.26 19.03C0.49 19.35 0.85 19.53 1.23 19.53L2.97 19.53L2.97 14.46L2.97 14.46ZM14.96 17.9L12.88 10.72C12.76 10.24 12.39 9.87 11.92 9.78L10.18 9.43L7.83 13.93L11.81 13.93L12.32 14.46L12.32 19.53L13.77 19.53C14.15 19.53 14.51 19.35 14.74 19.03C14.97 18.71 15.05 18.29 14.96 17.9ZM3.98 19.53L3.84 19.53L3.84 19.54L11.16 19.54L11.16 19.53L11.3 19.53L11.3 15L3.98 15L3.98 19.53ZM1.96 20.02L13.05 20.02L13.05 20.99L1.96 20.99L1.96 20.02ZM3.55 6.24C3.57 6.28 3.6 6.35 3.63 6.41C3.73 6.69 3.82 6.89 3.94 7.01C4.5 8.96 5.96 10.3 7.5 10.3C9.03 10.29 10.47 8.94 11.01 6.98C11.13 6.86 11.21 6.66 11.32 6.39C11.35 6.32 11.37 6.25 11.39 6.21C11.6 5.75 11.53 5.26 11.23 5.02C11.23 5.01 11.23 4.99 11.23 4.98C11.23 2.56 10.93 -0.01 7.47 0C3.98 0.01 3.69 2.48 3.7 5C3.7 5.02 3.7 5.03 3.7 5.05C3.41 5.29 3.34 5.78 3.55 6.24ZM4.04 5.46L4.05 5.46C4.11 5.43 4.15 5.39 4.18 5.34L4.79 5.44C4.85 5.44 4.9 5.41 4.92 5.35L5.31 4.42C5.74 4.53 7.38 4.92 8.66 4.92C9.06 4.92 9.39 4.88 9.64 4.8L9.88 5.42C9.9 5.47 9.95 5.5 10 5.5C10.01 5.5 10.03 5.5 10.04 5.5L10.74 5.29C10.77 5.35 10.82 5.41 10.89 5.43L10.9 5.43C11 5.49 11.04 5.73 10.93 5.97C10.9 6.03 10.87 6.1 10.84 6.18C10.8 6.3 10.71 6.53 10.66 6.59C10.6 6.62 10.56 6.68 10.54 6.75C10.08 8.51 8.83 9.75 7.49 9.76C6.16 9.76 4.89 8.53 4.41 6.77C4.39 6.7 4.35 6.65 4.29 6.61C4.23 6.55 4.14 6.32 4.1 6.2C4.07 6.13 4.04 6.05 4.01 6C3.9 5.76 3.94 5.52 4.04 5.46Z" />
</svg>