<svg xmlns="http://www.w3.org/2000/svg" viewBox="0 0 18 18" width="18" height="18">
	<style>
		tspan { white-space:pre }
		.shp0 { fill: #ec552c } 
	</style>
	<path id="Forma 1" class="shp0" d="M17.46 13.51L14.86 10.9C14.51 10.55 14.05 10.35 13.55 10.35C13.03 10.35 12.54 10.56 12.16 10.93L11.15 11.95C10.37 11.51 9.32 10.91 8.24 9.82C7.15 8.73 6.55 7.68 6.11 6.88L7.13 5.87C7.88 5.11 7.9 3.89 7.16 3.15L4.56 0.54C4.22 0.19 3.75 0 3.25 0C2.74 0 2.26 0.19 1.89 0.55C1.67 0.73 0.55 1.73 0.13 3.78C-0.45 6.65 0.89 9.41 4.76 13.31C9.09 17.66 12.79 18 13.82 18C14.03 18 14.16 17.98 14.2 17.98C16.22 17.74 16.94 16.84 17.47 16.18C18.15 15.33 18.15 14.21 17.46 13.51ZM16.6 15.48C16.1 16.1 15.63 16.68 14.07 16.87C14.07 16.87 13.98 16.87 13.82 16.87C12.9 16.87 9.58 16.56 5.55 12.51C1.98 8.92 0.72 6.45 1.22 4C1.59 2.21 2.55 1.45 2.59 1.42L2.62 1.4L2.65 1.37C2.81 1.21 3.03 1.12 3.25 1.12C3.45 1.12 3.64 1.19 3.77 1.33L6.37 3.95C6.67 4.25 6.66 4.75 6.34 5.07L5.19 6.23L5.17 6.24C4.88 6.57 4.91 7.02 5.08 7.31C5.55 8.17 6.2 9.35 7.45 10.61C8.69 11.86 9.87 12.52 10.72 12.99C10.8 13.04 10.98 13.12 11.2 13.12C11.46 13.12 11.7 13.01 11.88 12.81L12.95 11.73C13.11 11.57 13.32 11.48 13.55 11.48C13.75 11.48 13.94 11.55 14.07 11.69L16.67 14.3C17 14.64 16.86 15.15 16.6 15.48ZM10.89 2.75C11.85 2.86 12.98 3.44 13.77 4.23C14.56 5.03 15.14 6.18 15.25 7.15C15.28 7.44 15.52 7.66 15.8 7.66C15.82 7.66 15.84 7.65 15.86 7.65C16.17 7.62 16.39 7.34 16.36 7.03C16.22 5.8 15.53 4.42 14.55 3.44C13.59 2.47 12.23 1.77 11.02 1.63C10.71 1.6 10.44 1.82 10.4 2.13C10.37 2.43 10.58 2.71 10.89 2.75ZM10.37 5.1C10.89 5.16 11.61 5.54 12.08 6.02C12.55 6.49 12.93 7.22 12.99 7.75C13.02 8.04 13.26 8.25 13.55 8.25C13.57 8.25 13.59 8.25 13.61 8.24C13.91 8.21 14.13 7.93 14.1 7.63C14 6.73 13.41 5.77 12.86 5.22C12.32 4.68 11.38 4.08 10.5 3.98C10.19 3.95 9.91 4.17 9.88 4.47C9.84 4.78 10.06 5.06 10.37 5.1Z" />
</svg>