<svg xmlns="http://www.w3.org/2000/svg" viewBox="0 0 23 20" width="23" height="20">
	<style>
		tspan { white-space:pre }
		.shp0 { fill: #626262 } 
	</style>
	<path id="Forma 1 copy" class="shp0" d="M21.82 0L14.65 0C14 0 13.47 0.52 13.47 1.16L13.47 8.22C13.47 8.87 14 9.39 14.65 9.39L18.08 9.39C18.04 11.24 17.6 12.71 16.77 13.83C16.12 14.71 15.14 15.44 13.82 16.01C13.21 16.27 12.95 16.98 13.23 17.57L14.08 19.33C14.36 19.9 15.03 20.15 15.62 19.9C17.18 19.24 18.5 18.4 19.57 17.37C20.89 16.12 21.78 14.72 22.27 13.15C22.76 11.57 23 9.43 23 6.71L23 1.16C23 0.52 22.47 0 21.82 0ZM2.5 19.9C4.04 19.23 5.35 18.39 6.44 17.37C7.76 16.12 8.66 14.72 9.15 13.16C9.63 11.6 9.88 9.45 9.88 6.71L9.88 1.16C9.88 0.52 9.35 0 8.7 0L1.53 0C0.87 0 0.35 0.52 0.35 1.16L0.35 8.22C0.35 8.87 0.87 9.39 1.53 9.39L4.96 9.39C4.91 11.24 4.48 12.71 3.65 13.83C3 14.71 2.01 15.44 0.7 16.01C0.09 16.27 -0.17 16.98 0.11 17.57L0.96 19.33C1.23 19.9 1.91 20.15 2.5 19.9Z" />
</svg>