<svg xmlns="http://www.w3.org/2000/svg" viewBox="0 0 16 18" width="16" height="18">
	<style>
		tspan { white-space:pre }
		.shp0 { fill: #f1f1f1 } 
	</style>
	<path id="Forma 1" class="shp0" d="M0.24 6.04C0.43 4.36 1.3 2.86 2.67 1.81C3.85 0.91 5.26 0.44 6.76 0.44C8.77 0.44 10.65 1.3 11.9 2.82C12.99 4.14 13.49 5.79 13.29 7.47C13.09 9.15 12.22 10.65 10.85 11.7C9.68 12.6 8.26 13.08 6.77 13.08C4.75 13.08 2.88 12.21 1.62 10.69C0.53 9.37 0.04 7.72 0.24 6.04ZM2.1 10.33C3.24 11.7 4.94 12.49 6.77 12.49C8.13 12.49 9.41 12.06 10.47 11.24C11.72 10.29 12.51 8.93 12.69 7.4C12.87 5.88 12.42 4.38 11.43 3.18C10.29 1.81 8.59 1.02 6.76 1.02C5.4 1.02 4.12 1.45 3.05 2.27C1.8 3.22 1.02 4.59 0.84 6.11C0.66 7.63 1.11 9.13 2.1 10.33ZM3.48 3.25C3.37 3.13 3.39 2.94 3.53 2.84C5.77 1.12 9.05 1.48 10.83 3.64C11.69 4.69 12.08 5.99 11.93 7.32C11.77 8.65 11.09 9.84 10 10.67C9.94 10.71 9.88 10.73 9.81 10.73C9.72 10.73 9.63 10.69 9.57 10.62C9.47 10.5 9.49 10.31 9.62 10.21C10.58 9.48 11.19 8.43 11.32 7.26C11.46 6.08 11.12 4.93 10.35 4C8.78 2.1 5.88 1.78 3.9 3.3C3.77 3.4 3.58 3.38 3.48 3.25ZM3.17 9.51C3.44 9.84 3.76 10.13 4.12 10.37C4.25 10.46 4.29 10.64 4.19 10.77C4.13 10.86 4.04 10.9 3.94 10.9C3.88 10.9 3.82 10.88 3.77 10.84C3.36 10.57 3 10.24 2.69 9.87C2.59 9.74 2.61 9.56 2.74 9.46C2.87 9.36 3.07 9.38 3.17 9.51ZM15.24 17.01C14.91 17.26 14.51 17.39 14.09 17.39C13.99 17.39 13.89 17.38 13.79 17.37C13.27 17.29 12.79 17.03 12.45 16.62L9.6 13.17C9.5 13.04 9.52 12.86 9.65 12.76C9.78 12.66 9.97 12.68 10.08 12.8L12.93 16.25C13.17 16.55 13.51 16.74 13.88 16.79C14.24 16.84 14.59 16.76 14.86 16.55C15.43 16.11 15.49 15.27 15 14.67L12.14 11.22C12.04 11.09 12.06 10.91 12.19 10.81C12.32 10.71 12.51 10.73 12.62 10.86L15.47 14.31C16.17 15.16 16.07 16.37 15.24 17.01Z" />
</svg>