<svg xmlns="http://www.w3.org/2000/svg" viewBox="0 0 13 18" width="13" height="18">
	<style>
		tspan { white-space:pre }
		.shp0 { fill: #ed542b } 
	</style>
	<path id="icon" class="shp0" d="M11.86 7.91L11.86 5.45C11.86 2.44 9.46 -0.01 6.5 -0.01C3.55 -0.01 1.15 2.44 1.15 5.45L1.15 7.91L0 7.91L0 18.01L13.01 18.01L13.01 7.91L11.86 7.91ZM3.16 5.45C3.16 3.57 4.66 2.05 6.5 2.05C8.34 2.05 9.84 3.58 9.84 5.45L9.84 7.91L3.16 7.91L3.16 5.45ZM7.42 15.24L5.59 15.24L5.86 12.47C5.52 12.26 5.29 11.87 5.29 11.43C5.29 10.75 5.83 10.2 6.5 10.2C7.17 10.2 7.71 10.75 7.71 11.43C7.71 11.87 7.49 12.26 7.14 12.47L7.42 15.24Z" />
</svg>