<svg xmlns="http://www.w3.org/2000/svg" viewBox="0 0 18 18" width="18" height="18">
	<style>
		tspan { white-space:pre }
		.shp0 { fill: #ec552c } 
	</style>
	<path id="Forma 1" class="shp0" d="M9.01 -0.01C4.04 -0.01 0 4.03 0 8.99C0 13.95 4.04 17.99 9.01 17.99C13.97 17.99 18.01 13.95 18.01 8.99C18.01 4.03 13.97 -0.01 9.01 -0.01ZM13.85 3.44C13.87 3.45 13.89 3.47 13.92 3.47C13.94 3.47 13.95 3.46 13.97 3.46C14.03 3.43 14.06 3.36 14.04 3.3C14 3.21 13.95 3.11 13.89 3.01C13.9 3.01 13.91 3.01 13.91 3.01C13.92 3.01 13.93 3 13.94 3C14.11 3.33 14.19 3.5 14.23 3.6C14.23 3.6 14.23 3.6 14.23 3.6C14.2 3.58 14.16 3.58 14.12 3.59C14.09 3.61 14.07 3.64 14.06 3.67C14.02 3.64 13.96 3.58 13.87 3.48C13.86 3.47 13.85 3.46 13.84 3.45C13.84 3.45 13.84 3.44 13.85 3.44ZM3.55 2.94C3.58 2.94 3.61 2.93 3.64 2.92C3.65 2.91 3.66 2.9 3.68 2.9C3.68 2.92 3.7 2.95 3.72 2.97C3.73 2.98 3.76 2.99 3.78 3C3.77 3.01 3.76 3.02 3.75 3.03C3.72 3.06 3.71 3.1 3.72 3.14C3.73 3.18 3.76 3.22 3.8 3.23L3.8 3.23C2.69 4.25 2.18 4.71 1.91 4.98C2.34 4.22 2.89 3.53 3.55 2.94ZM0.85 8.99C0.85 8.43 0.91 7.87 1.03 7.32C1.05 7.34 1.07 7.35 1.1 7.35L1.19 7.35C1.19 7.35 1.19 7.35 1.2 7.35C1.15 7.53 1.11 7.69 1.08 7.84C1.08 7.86 1.08 7.89 1.08 7.9C1.11 8.13 1.14 8.45 1.18 8.69C1.18 8.72 1.21 8.75 1.23 8.77C2.35 9.48 2.94 10.75 3.05 11.03C2.71 11.59 2.59 12.04 2.69 12.42C2.8 12.84 3.15 13.06 3.43 13.21C3.46 13.32 3.49 13.43 3.52 13.54C3.53 13.56 3.54 13.57 3.55 13.59C3.56 13.6 4.25 14.31 4.91 14.54C5.12 15.51 5.69 16.27 6.6 16.78C6.6 16.78 6.6 16.78 6.6 16.78C3.21 15.75 0.85 12.62 0.85 8.99ZM16.25 12.31C16.2 12.48 16.15 12.66 16.09 12.83C15.89 13.14 15.73 13.47 15.58 13.79L15.56 13.84C14.02 15.91 11.57 17.15 9.01 17.15C8.65 17.15 8.3 17.12 7.95 17.08C7.94 17.06 7.93 17.04 7.92 17.02L7.88 16.97C7.87 16.96 7.85 16.95 7.84 16.94L7.7 16.87C7.6 16.74 7.61 16.73 7.63 16.63C7.63 16.63 7.63 16.63 7.63 16.63C7.63 16.63 7.63 16.63 7.64 16.63L7.72 16.63C7.75 16.63 7.81 16.61 7.83 16.57C7.85 16.53 7.85 16.48 7.83 16.44C7.83 16.44 7.83 16.43 7.82 16.43C7.83 16.42 7.85 16.42 7.86 16.42C7.97 16.38 8.08 16.34 8.19 16.27C8.22 16.28 8.25 16.29 8.27 16.3C8.31 16.31 8.35 16.3 8.38 16.28L8.52 16.17C8.55 16.15 8.57 16.11 8.57 16.07C8.58 15.75 8.58 15.69 8.53 15.54C9.43 14.99 9.54 14.91 9.39 14.52C9.92 13.93 9.94 13.89 9.97 13.48C9.97 13.43 9.97 13.37 9.97 13.32C9.98 13.26 9.92 13.2 9.86 13.2C9.8 13.2 8.55 13.14 7.8 12.42C7.78 12.4 7.75 12.38 7.71 12.39C7.59 12.39 7.41 12.41 7.14 12.6L7.1 12.57L7.19 12.47C7.22 12.43 7.23 12.38 7.21 12.33C6.89 11.7 6.8 11.64 6.49 11.6C6.11 11.54 6.11 11.54 5.99 11.18C5.99 11.16 5.98 11.14 5.96 11.13L5.85 11.02C5.54 10.71 5.16 10.56 4.75 10.41C4.74 10.4 4.72 10.4 4.7 10.4L4.48 10.42C4.28 10.3 4.18 10.24 3.99 10.12C3.94 10.09 3.88 10.09 3.84 10.13C3.71 10.25 3.65 10.28 3.6 10.28C3.49 10.28 3.3 10.15 2.99 9.94C2.93 9.8 2.73 9.55 2.46 9.37L2.43 9.29C2.44 9.18 2.46 9.06 2.47 8.94C2.59 8.8 2.63 8.74 2.67 8.55C2.68 8.52 2.68 8.48 2.66 8.45C2.64 8.42 2.6 8.4 2.57 8.4C2.37 8.38 2.24 8.46 2.08 8.64C2.05 8.62 2.02 8.61 1.99 8.6C1.97 8.48 1.91 8.18 1.95 7.86C2.06 7.8 2.1 7.73 2.32 7.33C2.71 7.34 2.72 7.35 2.97 7.52C3.01 7.55 3.06 7.55 3.1 7.53C3.13 7.51 3.17 7.49 3.21 7.47L3.24 7.57C3.26 7.62 3.3 7.65 3.35 7.66C3.41 7.66 3.45 7.66 3.49 7.66C3.48 7.8 3.49 7.95 3.5 8.09C3.51 8.23 3.52 8.36 3.52 8.49C3.51 8.54 3.54 8.58 3.59 8.6C3.61 8.62 3.63 8.62 3.65 8.62C3.62 8.62 3.6 8.62 3.58 8.64C3.5 8.46 3.36 8.42 3.28 8.42C3.17 8.42 3.11 8.41 3 8.4C2.95 8.39 2.91 8.41 2.88 8.45C2.85 8.49 2.85 8.55 2.88 8.59C2.95 8.68 3.07 8.82 3.42 8.92L3.42 8.92C3.55 9.14 3.6 9.16 3.92 9.24C3.93 9.24 3.94 9.24 3.95 9.24C3.98 9.24 4.01 9.23 4.03 9.21L4.12 9.13C4.15 9.11 4.16 9.06 4.16 9.02C4.15 8.98 4.13 8.95 4.09 8.93C4.08 8.92 4.05 8.9 3.98 8.81C3.89 8.69 3.83 8.6 3.71 8.6C3.7 8.6 3.68 8.61 3.67 8.61C3.69 8.61 3.71 8.6 3.72 8.59L4.11 8.26C4.15 8.23 4.17 8.17 4.14 8.12L4.04 7.89C4.06 7.83 4.07 7.78 4.1 7.72C4.11 7.72 4.13 7.71 4.14 7.7C4.22 7.65 4.31 7.61 4.4 7.57C4.48 7.53 4.57 7.49 4.65 7.44C4.76 7.44 4.85 7.46 4.96 7.48C5 7.49 5.04 7.47 5.07 7.44C5.41 7.03 5.43 7 5.52 6.92C6.1 6.66 6.12 6.66 7.67 6.23C7.72 6.22 7.76 6.17 7.76 6.11C7.75 6.05 7.71 6 7.66 5.99C7.59 5.98 7.57 5.97 7.53 5.94L7.65 5.82C7.68 5.79 7.69 5.74 7.68 5.7C7.68 5.7 7.68 5.7 7.68 5.7C7.73 5.7 7.8 5.7 7.87 5.7C7.88 5.72 7.89 5.74 7.91 5.76C8.06 5.88 8.14 5.97 8.15 5.99C8.17 6.03 8.2 6.06 8.25 6.07C8.25 6.07 8.26 6.07 8.27 6.07C8.3 6.07 8.34 6.06 8.36 6.03L8.54 5.82C8.57 5.79 8.58 5.74 8.57 5.7C8.55 5.66 8.52 5.63 8.47 5.62L8.42 5.61C8.52 5.54 8.67 5.41 8.92 5.19C8.96 5.16 8.98 5.1 8.96 5.06C8.94 5.01 8.89 4.97 8.84 4.98C8.75 4.98 8.69 4.99 8.62 5.01L8.62 5.01C8.64 4.97 8.64 4.93 8.62 4.9L8.52 4.71C8.54 4.65 8.55 4.63 8.61 4.53C8.62 4.5 8.62 4.47 8.62 4.44C8.6 4.4 8.58 4.38 8.55 4.36C8.39 4.28 8.24 4.26 8.04 4.3C7.81 3.92 7.78 3.89 7.6 3.85C7.57 3.85 7.53 3.86 7.5 3.88C7.47 3.9 7.46 3.93 7.46 3.97C7.45 4.01 7.45 4.05 7.45 4.09L7.32 4.08C7.28 4.07 7.24 4.09 7.22 4.12C7.05 4.31 6.86 4.49 6.68 4.66C6.55 4.79 6.41 4.92 6.27 5.06C6.19 4.86 6.12 4.53 6.1 4.31L6.64 4.03C7.14 3.72 7.35 3.59 7.46 3.59C7.5 3.59 7.55 3.61 7.62 3.64C7.61 3.66 7.6 3.68 7.6 3.71C7.6 3.77 7.65 3.83 7.71 3.83C7.8 3.84 7.9 3.85 8 3.85L8.11 4.06C8.13 4.1 8.17 4.12 8.22 4.12C8.27 4.12 8.31 4.1 8.33 4.06C8.48 3.76 8.56 3.74 8.58 3.74C8.63 3.74 8.71 3.82 8.74 3.85C8.76 3.88 8.79 3.89 8.83 3.89C8.86 3.88 8.9 3.87 8.92 3.85C8.97 3.8 9.07 3.69 9.1 3.52L9.1 3.48C9.11 3.44 9.09 3.39 9.06 3.37C9.04 3.35 9.02 3.34 8.99 3.34C8.99 3.3 8.99 3.24 8.99 3.21C8.99 3.17 8.98 3.13 8.94 3.11C8.85 3.04 8.85 3.02 8.85 2.99C8.85 2.92 8.81 2.87 8.74 2.86C8.73 2.86 8.7 2.85 8.6 2.81C8.53 2.78 8.48 2.76 8.44 2.76L8.41 2.68C8.39 2.65 8.36 2.63 8.33 2.62C8.29 2.61 8.26 2.61 8.23 2.63C8.23 2.63 8.22 2.63 8.22 2.62C8.19 2.59 8.13 2.58 8.09 2.6C8.02 2.62 7.97 2.64 7.94 2.65C7.94 2.61 7.94 2.58 7.94 2.54C7.94 2.51 7.92 2.49 7.9 2.47C7.92 2.46 7.93 2.46 7.94 2.45C7.96 2.42 7.98 2.39 7.98 2.36C7.98 2.32 7.99 2.26 7.99 2.22C7.99 2.18 7.96 2.14 7.93 2.12C7.93 2.12 7.93 2.12 7.93 2.12C7.95 2.11 7.97 2.09 8.01 2.06C8.08 2 8.08 1.97 8.1 1.83C8.11 1.78 8.08 1.74 8.04 1.71C8 1.68 7.94 1.69 7.9 1.71C7.61 1.88 7.61 1.88 7.56 1.9C7.5 1.92 7.47 1.99 7.49 2.05C7.5 2.11 7.56 2.15 7.63 2.14C7.67 2.13 7.71 2.12 7.73 2.12C7.74 2.13 7.75 2.13 7.76 2.13C7.7 2.16 7.66 2.18 7.66 2.18C7.64 2.19 7.61 2.22 7.6 2.25C7.6 2.26 7.59 2.28 7.58 2.29C7.55 2.27 7.52 2.26 7.49 2.26C7.51 2.23 7.5 2.19 7.49 2.16C7.47 2.12 7.43 2.09 7.38 2.08C7.35 2.08 7.32 2.08 7.29 2.08C7.29 2.08 7.29 2.08 7.29 2.08C7.28 2.08 7.27 2.08 7.26 2.08C7.23 2.04 7.18 2.03 7.13 2.05C6.98 2.11 6.92 2.13 6.87 2.17C6.82 2.19 6.8 2.25 6.81 2.3L6.82 2.34C6.83 2.38 6.87 2.41 6.91 2.43L6.91 2.43C6.91 2.44 6.92 2.46 6.93 2.47C6.91 2.47 6.89 2.48 6.87 2.49L6.84 2.46C6.83 2.37 6.81 2.33 6.73 2.25C6.69 2.22 6.63 2.21 6.58 2.24C6.55 2.26 6.53 2.3 6.52 2.34C6.52 2.34 6.51 2.36 6.5 2.37C6.47 2.41 6.43 2.46 6.43 2.54C6.42 2.58 6.43 2.61 6.43 2.63C6.44 2.65 6.44 2.66 6.44 2.67C6.44 2.67 6.44 2.68 6.44 2.68C6.39 2.69 6.33 2.7 6.29 2.72C6.26 2.74 6.23 2.76 6.22 2.8C6.21 2.83 6.21 2.86 6.23 2.89C6.26 2.95 6.31 3 6.36 3.04L6.31 3.06C6.3 3.06 6.29 3.05 6.28 3.05C6.25 3.04 6.23 3.04 6.2 3.03L6.19 2.94C6.19 2.9 6.16 2.87 6.13 2.85C6.11 2.84 6.08 2.83 6.06 2.83C6.05 2.82 6.03 2.82 6.02 2.81C6.01 2.81 6 2.81 5.99 2.81L6 2.77C6.01 2.74 6.01 2.7 6 2.67C5.98 2.64 5.96 2.62 5.92 2.61C5.85 2.59 5.79 2.56 5.73 2.54C5.7 2.53 5.67 2.53 5.64 2.54C5.57 2.57 5.53 2.58 5.49 2.59L5.55 2.51C5.57 2.47 5.58 2.43 5.56 2.39C5.55 2.36 5.52 2.33 5.48 2.32C5.41 2.3 5.34 2.28 5.19 2.3C5.19 2.29 5.19 2.28 5.18 2.27C5.2 2.23 5.21 2.18 5.19 2.14C5.18 2.13 5.16 2.11 5.15 2.1C5.16 2.06 5.15 2.02 5.12 1.99C5.09 1.94 5.02 1.93 4.97 1.96C4.87 2.01 4.85 2.02 4.68 2.11C4.68 2.1 4.67 2.1 4.67 2.1C5.97 1.27 7.45 0.84 9.01 0.84C10.48 0.84 11.91 1.23 13.16 1.98C13.14 1.99 13.13 1.99 13.12 1.99C13.08 1.99 12.97 1.96 12.78 1.89C12.74 1.88 12.69 1.89 12.66 1.92C12.62 1.95 12.57 1.99 12.51 2.02C12.48 2.04 12.46 2.08 12.45 2.11C12.44 2.15 12.46 2.19 12.48 2.21C12.8 2.58 12.84 2.63 12.98 2.9C12.93 3.15 13 3.21 13.4 3.53C13.45 3.57 13.52 3.56 13.56 3.53L13.61 3.49C13.63 3.5 13.65 3.51 13.67 3.51L13.68 3.51C13.67 3.52 13.67 3.53 13.67 3.55C13.65 3.67 13.67 3.7 13.84 3.92C13.84 3.92 13.83 3.93 13.83 3.93C13.8 3.95 13.78 3.99 13.78 4.03L13.78 4.12C13.66 4.07 13.64 4.06 13.54 4.01C13.52 3.98 13.51 3.98 13.51 3.97L13.3 3.69C13.26 3.63 13.19 3.62 13.14 3.66C13.09 3.69 13.03 3.73 12.99 3.78C12.95 3.81 12.94 3.85 12.95 3.89C12.96 3.94 12.98 4 13.04 4.07C12.94 4.12 12.88 4.24 12.83 4.35C12.81 4.39 12.83 4.45 12.85 4.49L12.97 4.45L12.87 4.53C12.87 4.53 12.89 4.57 12.89 4.57L13.01 4.53L12.92 4.61C12.92 4.61 12.94 4.66 12.94 4.66C12.94 4.66 12.96 4.7 12.96 4.7L13.01 4.69C13.01 4.7 13.01 4.71 13.01 4.72L12.98 4.74C12.98 4.74 13.01 4.79 13.01 4.79L13.02 4.81C13.04 4.85 13.08 4.87 13.13 4.87C13.14 4.87 13.15 4.87 13.16 4.87C13.21 4.86 13.25 4.81 13.25 4.76C13.26 4.63 13.28 4.62 13.31 4.62C13.33 4.61 13.35 4.59 13.36 4.57L13.36 4.58C13.36 4.61 13.38 4.64 13.4 4.66C13.42 4.68 13.44 4.7 13.46 4.73C13.46 4.76 13.47 4.79 13.48 4.81C13.5 4.85 13.54 4.87 13.57 4.87C13.63 4.88 13.64 4.88 13.89 5.26C13.8 5.27 13.65 5.29 13.36 5.3C13.32 5.31 13.29 5.33 13.27 5.36C13.24 5.4 13.24 5.44 13.26 5.48C13.31 5.59 13.37 5.71 13.43 5.82C13.48 5.9 13.52 5.98 13.56 6.06C13.54 6.09 13.53 6.14 13.54 6.18L13.6 6.36C13.61 6.36 13.62 6.41 13.63 6.42C13.64 6.45 13.66 6.47 13.69 6.49C13.72 6.5 13.75 6.5 13.78 6.49C14.33 6.3 14.35 6.29 14.63 6.17C14.69 6.14 14.72 6.07 14.7 6.01C14.65 5.91 14.6 5.8 14.56 5.7C14.63 5.6 14.65 5.48 14.67 5.37C14.68 5.28 14.7 5.2 14.74 5.15C14.76 5.13 14.78 5.13 14.81 5.12C15.09 5.4 15.18 5.49 15.34 5.49C15.37 5.49 15.41 5.49 15.44 5.48C15.47 5.52 15.49 5.55 15.56 5.63C15.6 5.68 15.67 5.69 15.72 5.66C15.77 5.62 15.79 5.55 15.76 5.49C15.74 5.46 15.72 5.42 15.7 5.39C15.78 5.45 15.88 5.53 15.98 5.61C16.02 5.64 16.06 5.65 16.11 5.63C16.15 5.62 16.18 5.58 16.18 5.53C16.19 5.5 16.19 5.47 16.19 5.44C16.19 5.44 16.19 5.45 16.2 5.45C16.24 5.48 16.29 5.49 16.33 5.46C16.34 5.46 16.35 5.45 16.35 5.45C16.42 5.59 16.48 5.73 16.54 5.87C16.47 5.9 16.35 5.94 16.16 6.02C16.11 6.04 16.08 6.09 16.08 6.15C16.09 6.21 16.09 6.24 16.07 6.32C15.92 6.24 15.7 6.05 15.53 5.87C15.49 5.83 15.42 5.82 15.37 5.85C15.18 5.96 14.78 6.19 14.2 6.35C14.16 6.36 14.13 6.39 14.12 6.44C14.11 6.46 14.11 6.49 14.12 6.51C14.11 6.51 14.1 6.52 14.1 6.52L14.11 6.64L14.05 6.53C14.01 6.54 13.98 6.57 13.96 6.61C13.72 7.24 13.51 7.78 12.83 8.74C12.8 8.79 12.8 8.87 12.85 8.91L13.04 9.06C13.15 9.86 13.15 9.87 13.03 10.12C13 10.17 13.02 10.23 13.06 10.27C14.19 11.28 14.19 11.28 14.46 11.35C14.51 11.37 14.57 11.35 14.6 11.3L14.73 11.1C15.05 11.02 15.35 10.94 15.64 10.85C15.87 10.77 16.06 10.71 16.17 10.71C16.23 10.71 16.24 10.73 16.25 10.74C16.37 10.87 16.31 11.51 16.25 12.31ZM5.24 5.69C5.23 5.64 5.16 5.6 5.11 5.6L5.01 5.6C4.99 5.6 4.98 5.6 4.96 5.6C4.97 5.58 4.97 5.57 4.97 5.55C4.97 5.51 4.95 5.46 4.91 5.44C4.88 5.42 4.85 5.4 4.83 5.38C4.81 5.37 4.79 5.35 4.77 5.34C4.91 5.23 4.96 5.26 5.17 5.33C5.23 5.56 5.29 5.74 5.41 5.87C5.37 5.89 5.32 5.93 5.28 5.96C5.18 6.03 5.09 6.1 4.99 6.13C5.01 6.07 5.04 6 5.05 5.93L5.21 5.83C5.25 5.8 5.26 5.74 5.24 5.69ZM6.76 3.09C6.91 3.05 7.08 2.96 7.24 2.83L7.29 2.79C7.3 2.78 7.31 2.76 7.32 2.75C7.09 3.17 7.07 3.17 6.94 3.17C6.93 3.17 6.91 3.17 6.89 3.17C6.88 3.12 6.84 3.09 6.79 3.09C6.78 3.09 6.77 3.09 6.76 3.09ZM7.33 2.73C7.33 2.71 7.33 2.7 7.33 2.69L7.33 2.69C7.34 2.69 7.34 2.69 7.35 2.69C7.34 2.7 7.34 2.71 7.33 2.73ZM7.65 2.92L7.66 2.94C7.67 2.99 7.71 3.04 7.76 3.04C7.77 3.04 7.77 3.04 7.78 3.04C7.79 3.04 7.81 3.04 7.82 3.03C7.83 3.04 7.83 3.04 7.84 3.06C7.84 3.06 7.84 3.06 7.84 3.06C7.75 3.1 7.69 3.12 7.65 3.14C7.64 3.07 7.64 3 7.64 2.92C7.64 2.85 7.65 2.77 7.63 2.69C7.63 2.65 7.57 2.6 7.53 2.58C7.52 2.58 7.51 2.58 7.5 2.58C7.51 2.57 7.52 2.56 7.53 2.54C7.55 2.56 7.57 2.58 7.6 2.58C7.61 2.58 7.63 2.58 7.64 2.58C7.65 2.58 7.66 2.58 7.66 2.58C7.64 2.65 7.63 2.75 7.65 2.92ZM8.06 3.29L8 3.12C8 3.12 8 3.12 7.99 3.11C8 3.11 8 3.11 8 3.11C8.01 3.11 8.03 3.1 8.06 3.1C8.13 3.1 8.2 3.13 8.23 3.16C8.12 3.3 8.04 3.4 7.97 3.53C7.94 3.54 7.91 3.54 7.89 3.55C7.94 3.5 7.99 3.46 8.03 3.42C8.07 3.39 8.08 3.33 8.06 3.29ZM13.35 4.39L13.31 4.3C13.32 4.31 13.33 4.32 13.35 4.33L13.35 4.39ZM4.98 9.44C5.01 9.5 5 9.56 4.96 9.6L4.76 9.78C4.74 9.81 4.71 9.82 4.68 9.82C4.67 9.82 4.67 9.82 4.67 9.82C4.63 9.81 4.6 9.8 4.58 9.77C4.43 9.58 4.42 9.57 4.39 9.57C4.37 9.57 4.34 9.58 4.32 9.58C4.26 9.58 4.2 9.55 4.19 9.49C4.11 9.2 4.13 9.09 4.38 9.02L4.43 9C4.46 9 4.49 9 4.52 9.02L4.78 9.16C4.8 9.17 4.81 9.18 4.82 9.2L4.98 9.44ZM11.41 3.07C11.05 3.54 10.52 3.89 10.25 4C10.25 4.05 10.24 4.1 10.2 4.15C10.17 4.18 10.12 4.22 10.03 4.22C10.03 4.22 10.02 4.22 10.02 4.22C9.89 4.22 9.81 4.15 9.75 4.1C9.71 4.08 9.68 4.05 9.66 4.04C9.61 4.03 9.57 3.99 9.56 3.94C9.56 3.9 9.54 3.85 9.52 3.81C9.49 3.73 9.45 3.63 9.46 3.52C9.46 3.5 9.46 3.49 9.47 3.47L9.5 3.42C9.53 3.35 9.57 3.26 9.61 3.16C9.59 3.13 9.56 3.09 9.53 3.06C9.5 3.03 9.5 2.99 9.5 2.95C9.52 2.88 9.53 2.84 9.53 2.8C9.5 2.77 9.48 2.73 9.45 2.69C9.4 2.63 9.36 2.56 9.31 2.52C9.25 2.5 9.17 2.48 9.14 2.48C9.11 2.48 9.09 2.46 9.07 2.44L9.04 2.48C9.02 2.51 8.99 2.53 8.95 2.53C8.92 2.53 8.89 2.53 8.86 2.5C8.86 2.5 8.85 2.5 8.85 2.49C8.78 2.55 8.7 2.58 8.49 2.64C8.48 2.64 8.47 2.65 8.45 2.65C8.43 2.65 8.41 2.64 8.39 2.63C8.32 2.59 8.29 2.58 8.28 2.58C8.21 2.57 8.17 2.51 8.17 2.44C8.18 2.38 8.22 2.33 8.3 2.33L8.3 2.33C8.44 2.33 8.52 2.29 8.73 2.12C8.69 2.05 8.67 2 8.66 1.93C8.65 1.89 8.66 1.86 8.68 1.83C8.71 1.8 8.74 1.78 8.78 1.78C8.81 1.78 8.86 1.77 8.94 1.75C9.03 1.73 9.14 1.71 9.22 1.72C9.23 1.71 9.25 1.7 9.27 1.69C9.37 1.67 9.44 1.76 9.46 1.78C9.46 1.78 9.46 1.79 9.46 1.79C9.47 1.79 9.48 1.78 9.49 1.77C9.5 1.77 9.52 1.77 9.53 1.77C9.54 1.74 9.56 1.69 9.59 1.67C9.63 1.65 9.67 1.64 9.71 1.66C9.81 1.71 9.87 1.73 9.89 1.74C9.89 1.74 9.91 1.74 9.94 1.74C9.96 1.74 9.98 1.74 10.01 1.74C10.04 1.74 10.06 1.74 10.09 1.75C10.1 1.72 10.12 1.7 10.14 1.67C10.17 1.65 10.21 1.63 10.25 1.63C10.26 1.63 10.3 1.64 10.31 1.64C10.32 1.62 10.35 1.59 10.39 1.57L10.46 1.55C10.49 1.54 10.53 1.54 10.56 1.56L10.74 1.65C10.77 1.66 10.79 1.68 10.8 1.71C10.84 1.68 10.89 1.68 10.93 1.7C10.97 1.72 11 1.76 11 1.81C11.02 1.88 11.12 2.12 11.35 2.33C11.37 2.34 11.38 2.36 11.39 2.38L11.4 2.42C11.41 2.46 11.43 2.5 11.44 2.54C11.46 2.58 11.45 2.63 11.41 2.67C11.41 2.67 11.41 2.67 11.4 2.68C11.42 2.7 11.43 2.72 11.45 2.75C11.48 2.78 11.48 2.83 11.46 2.87C11.45 2.89 11.43 2.91 11.42 2.92C11.42 2.93 11.43 2.93 11.43 2.94C11.45 2.98 11.44 3.03 11.41 3.07ZM12.17 3.34C12.17 3.34 12.17 3.37 12.17 3.37C12.17 3.56 12.04 3.64 11.68 3.71C11.67 3.71 11.66 3.71 11.66 3.71C11.63 3.71 11.6 3.7 11.58 3.68L11.54 3.65C11.49 3.62 11.43 3.58 11.39 3.55C11.35 3.53 11.33 3.49 11.33 3.45C11.34 3.4 11.36 3.36 11.39 3.34C11.48 3.29 11.56 3.25 11.68 3.23C11.83 3.2 11.93 3.2 12.06 3.22C12.12 3.23 12.17 3.28 12.17 3.34Z" />
</svg>